<?xml version="1.0" encoding="UTF-8" standalone="no"?>
<svg
   viewBox="0 0 479.40075 479.40075"
   version="1.1"
   id="svg1"
   sodipodi:docname="github-alt-brands-solid.svg"
   inkscape:version="1.4.4 (dcaf3e7, 2026-05-05)"
   inkscape:export-filename="..\assets\icons\github.png"
   inkscape:export-xdpi="96"
   inkscape:export-ydpi="96"
   width="512"
   height="512"
   xmlns:inkscape="http://www.inkscape.org/namespaces/inkscape"
   xmlns:sodipodi="http://sodipodi.sourceforge.net/DTD/sodipodi-0.dtd"
   xmlns="http://www.w3.org/2000/svg"
   xmlns:svg="http://www.w3.org/2000/svg">
  <defs
     id="defs1" />
  <sodipodi:namedview
     id="namedview1"
     pagecolor="#ffffff"
     bordercolor="#666666"
     borderopacity="1.0"
     inkscape:showpageshadow="2"
     inkscape:pageopacity="0.0"
     inkscape:pagecheckerboard="0"
     inkscape:deskcolor="#d1d1d1"
     inkscape:zoom="1.4084535"
     inkscape:cx="239.62452"
     inkscape:cy="255.95449"
     inkscape:window-width="1920"
     inkscape:window-height="1009"
     inkscape:window-x="1912"
     inkscape:window-y="-8"
     inkscape:window-maximized="1"
     inkscape:current-layer="svg1"
     showgrid="false" />
  <!--!Font Awesome Free 6.7.2 by @fontawesome - https://fontawesome.com License - https://fontawesome.com/license/free Copyright 2026 Fonticons, Inc.-->
  <path
     id="path3"
     style="display:inline;fill:#000000;fill-opacity:1;stroke:none;stroke-width:14.8051;stroke-linecap:round;stroke-linejoin:round"
     d="M 240.00029 1.4813027 A 238.51791 238.51791 0 0 0 1.4813027 240.00029 A 238.51791 238.51791 0 0 0 240.00029 478.51745 A 238.51791 238.51791 0 0 0 478.51745 240.00029 A 238.51791 238.51791 0 0 0 240.00029 1.4813027 z M 109.11349 118.20064 C 140.05897 118.20064 159.87055 124.34776 183.43831 142.79209 C 203.24889 138.07854 223.60552 135.96164 244.0309 135.96164 C 262.47522 135.96164 281.05648 137.94162 298.95431 142.24529 C 322.1805 124.0059 341.98944 118.20064 372.59334 118.20064 C 379.28795 131.52155 382.56745 138.89834 382.56745 153.58548 C 382.56745 164.78871 380.79184 175.92406 377.30791 186.51247 C 396.09379 208.64567 403.94941 235.90122 403.94941 264.52408 C 403.94941 286.3157 401.76341 309.4061 391.99475 329.4216 C 366.10438 381.74883 294.92239 380.51922 243.96141 380.51922 C 192.18067 380.51922 116.76429 382.36365 89.849236 329.4216 C 79.875636 309.61103 76.051176 286.3157 76.051176 264.52408 C 76.051176 235.90122 85.546548 208.85037 104.40075 186.92211 C 100.84851 176.12876 99.139382 164.78871 99.139382 153.58548 C 99.139382 138.89834 102.48719 131.52155 109.11349 118.20064 z M 171.68847 242.59714 C 139.71832 242.59714 121.47779 269.03286 121.47779 299.02198 C 121.47779 359.0002 176.40123 368.22258 224.21985 368.22258 L 257.14683 368.22258 C 305.1704 368.22258 360.02421 359.06851 360.02421 299.02198 C 360.02421 269.03286 341.78555 242.59714 309.81537 242.59714 C 296.90435 242.59714 284.54053 244.91929 271.56118 246.69542 C 261.38266 248.2666 251.2037 248.88079 240.75192 248.88079 C 230.36844 248.88079 220.18949 248.2666 209.94265 246.69542 C 197.16824 244.91929 184.66782 242.59714 171.68847 242.59714 z M 178.10927 261.38226 C 195.73383 261.38226 203.17986 284.74471 203.17986 299.02198 C 203.17986 313.29926 195.73383 336.66169 178.10927 336.66169 C 160.48468 336.66169 153.03868 313.29926 153.03868 299.02198 C 153.03868 284.74471 160.48468 261.38226 178.10927 261.38226 z M 303.59938 261.38226 C 321.22396 261.38226 328.66997 284.74471 328.66997 299.02198 C 328.66997 313.29926 321.22396 336.66169 303.59938 336.66169 C 285.9748 336.66169 278.52879 313.29926 278.52879 299.02198 C 278.52879 284.74471 285.9748 261.38226 303.59938 261.38226 z " />
  <g
     inkscape:groupmode="layer"
     id="layer3"
     inkscape:label="Layer 1"
     style="display:inline" />
</svg>
